<svg width="2913" height="1432" viewBox="0 0 2913 1432" fill="none" xmlns="http://www.w3.org/2000/svg">
<g clip-path="url(#clip0_231_2)">
<path d="M0 619C0 536.157 67.1573 469 150 469V469V1319H0V619Z" fill="#FF43D3"/>
<rect x="905" y="469" width="150" height="850" fill="#0B0B0B"/>
<path d="M163 75C163 33.5786 196.579 0 238 0V0C279.421 0 313 33.5786 313 75V374H163V75Z" fill="#0B0B0B"/>
<path d="M0 619C0 536.157 67.1573 469 150 469H326C408.843 469 476 536.157 476 619V619H0V619Z" fill="#FF43D3"/>
<path d="M163 50C163 22.3858 185.386 0 213 0H1005C1032.61 0 1055 22.3858 1055 50V150H163V50Z" fill="#0B0B0B"/>
<path d="M905 75C905 33.5786 938.579 0 980 0V0C1021.42 0 1055 33.5786 1055 75V374H905V75Z" fill="#0B0B0B"/>
<rect x="326" y="619" width="150" height="350" fill="#FF43D3"/>
<path d="M626 819V819C708.843 819 776 886.157 776 969V1169C776 1251.84 708.843 1319 626 1319V1319V819Z" fill="#FF43D3"/>
<path d="M326 1169H776V1169C776 1251.84 708.843 1319 626 1319H326V1169Z" fill="#FF43D3"/>
<path d="M326 819H626C708.843 819 776 886.157 776 969V969H326V819Z" fill="#FF43D3"/>
<path d="M1243.77 1319V465.875H1393.18V1193.61H1722.48V1319H1243.77ZM1859.47 1319L2123.14 465.875H2303.61L2562.59 1319H2416.11L2232.71 687.359C2228.02 670.953 2223.92 656.5 2220.41 644C2217.28 631.5 2213.96 619.781 2210.45 608.844H2209.27C2205.76 619.781 2202.05 631.5 2198.14 644C2194.62 656.5 2190.72 670.953 2186.42 687.359L2010.64 1319H1859.47ZM1993.65 1122.71L2015.91 1017.83H2404.98L2429 1122.71H1993.65ZM2741.19 1319V465.875H2891.77V1319H2741.19Z" fill="#0B0B0B"/>
</g>
<defs>
<clipPath id="clip0_231_2">
<rect width="2913" height="1432" fill="white"/>
</clipPath>
</defs>
</svg>
