<svg width="2780" height="1432" viewBox="0 0 2780 1432" fill="none" xmlns="http://www.w3.org/2000/svg">
<g clip-path="url(#clip0_233_15)">
<path d="M0 619C0 536.157 67.1573 469 150 469V469V1319H0V619Z" fill="#FF43D3"/>
<rect x="755" y="469" width="150" height="850" fill="#262626"/>
<path d="M163 75C163 33.5786 196.579 0 238 0V0C279.421 0 313 33.5786 313 75V374H163V75Z" fill="#262626"/>
<path d="M0 619C0 536.157 67.1573 469 150 469H326C408.843 469 476 536.157 476 619V619H0V619Z" fill="#FF43D3"/>
<path d="M163 50C163 22.3858 185.386 0 213 0H855C882.614 0 905 22.3858 905 50V150H163V50Z" fill="#262626"/>
<path d="M755 75C755 33.5786 788.579 0 830 0V0C871.421 0 905 33.5786 905 75V374H755V75Z" fill="#262626"/>
<rect x="326" y="619" width="150" height="350" fill="#FF43D3"/>
<path d="M476 819V819C558.843 819 626 886.157 626 969V1169C626 1251.84 558.843 1319 476 1319V1319V819Z" fill="#FF43D3"/>
<path d="M326 1169H626V1169C626 1251.84 558.843 1319 476 1319H326V1169Z" fill="#FF43D3"/>
<path d="M326 819H476C558.843 819 626 886.157 626 969V969H326V819Z" fill="#FF43D3"/>
<path d="M1057.77 1319V465.875H1207.18V1193.61H1536.48V1319H1057.77ZM1673.47 1319L1937.14 465.875H2117.61L2376.59 1319H2230.11L2046.71 687.359C2042.02 670.953 2037.92 656.5 2034.41 644C2031.28 631.5 2027.96 619.781 2024.45 608.844H2023.27C2019.76 619.781 2016.05 631.5 2012.14 644C2008.62 656.5 2004.72 670.953 2000.42 687.359L1824.64 1319H1673.47ZM1807.65 1122.71L1829.91 1017.83H2218.98L2243 1122.71H1807.65ZM2555.19 1319V465.875H2705.77V1319H2555.19Z" fill="#262626"/>
</g>
<defs>
<clipPath id="clip0_233_15">
<rect width="2780" height="1432" fill="white"/>
</clipPath>
</defs>
</svg>
