<svg width="4000" height="2000" viewBox="0 0 4000 2000" fill="none" xmlns="http://www.w3.org/2000/svg">
<path d="M517 903C517 820.157 584.157 753 667 753V753V1603H517V903Z" fill="#FF43D3"/>
<rect x="1422" y="753" width="150" height="850" fill="#FFEEF6"/>
<path d="M680 359C680 317.579 713.579 284 755 284C796.421 284 830 317.579 830 359V658H680V359Z" fill="#FFEEF6"/>
<path d="M517 903C517 820.157 584.157 753 667 753H843C925.843 753 993 820.157 993 903V903H517V903Z" fill="#FF43D3"/>
<path d="M680 334C680 306.386 702.386 284 730 284H1522C1549.61 284 1572 306.386 1572 334V434H680V334Z" fill="#FFEEF6"/>
<path d="M1422 359C1422 317.579 1455.58 284 1497 284C1538.42 284 1572 317.579 1572 359V658H1422V359Z" fill="#FFEEF6"/>
<rect x="843" y="903" width="150" height="350" fill="#FF43D3"/>
<path d="M1143 1103V1103C1225.84 1103 1293 1170.16 1293 1253V1453C1293 1535.84 1225.84 1603 1143 1603V1603V1103Z" fill="#FF43D3"/>
<path d="M843 1453H1293V1453C1293 1535.84 1225.84 1603 1143 1603H843V1453Z" fill="#FF43D3"/>
<path d="M843 1103H1143C1225.84 1103 1293 1170.16 1293 1253V1253H843V1103Z" fill="#FF43D3"/>
<path d="M1760.77 1603V749.875H1910.18V1477.61H2239.48V1603H1760.77ZM2376.47 1603L2640.14 749.875H2820.61L3079.59 1603H2933.11L2749.71 971.359C2745.02 954.953 2740.92 940.5 2737.41 928C2734.28 915.5 2730.96 903.781 2727.45 892.844H2726.27C2722.76 903.781 2719.05 915.5 2715.14 928C2711.62 940.5 2707.72 954.953 2703.42 971.359L2527.64 1603H2376.47ZM2510.65 1406.71L2532.91 1301.83H2921.98L2946 1406.71H2510.65ZM3258.19 1603V749.875H3408.77V1603H3258.19Z" fill="#FFEEF6"/>
</svg>
